<svg id="图层_1" data-name="图层 1" xmlns="http://www.w3.org/2000/svg" viewBox="0 0 339.69336 46.91943"><path d="M20.35156,38.856,0,36.6958H20.73633ZM21.168,34.2002.81641,32.04H21.55176Zm.81641-4.6084L1.63184,27.43213H22.36816Zm.81542-4.60791L2.44824,22.82422H23.18359Zm.81641-4.60791L3.26367,18.21582H24Zm.81543-4.60791L4.08008,13.60791h20.6875Zm.76856-4.60791L4.89648,9H25.584ZM40.6084,27.86377H32.832L30.91211,39H21.792L27.07227,9H45.792l-2.54394,7.68018H34.7998l-.67187,4.03173H41.9043Z" style="fill:#fff"/><path d="M48.7666,38.80811,29.08691,36.6958h20.5918Zm1.96875-4.65625L31.05469,32.04H51.64648ZM52.70312,29.544,33.02246,27.43213H53.56738ZM54.62305,24.936,34.99121,22.82422H55.53516Zm1.96777-4.60792L36.959,18.21582h20.4961Zm1.91992-4.65624-19.584-2.064H59.375ZM60.47852,11.064,40.89453,9H61.34277Zm0,0L61.34277,9H40.89453ZM59.90332,39H50.30273l12.624-30h14.1123l2.11231,30H69.50293l-.19238-4.752H61.77539Zm8.6875-12.38379V18.21582h-.47949L64.751,26.61621Z" style="fill:#fff"/><path d="M94.31934,20.376,73.96777,18.21582h20.6875A13.27569,13.27569,0,0,0,94.31934,20.376ZM74.01562,36.6958H91.24707l-.71973,2.11231ZM94.31934,22.82422a9.05506,9.05506,0,0,0,.38378,2.15967L74.39941,22.82422ZM74.832,32.04H92.7832l-.71972,2.11182ZM95.95117,13.60791l-.71972,2.1123-19.91993-2.1123Zm5.08789,15.98389-25.3916-2.15967H96.33594A9.2022,9.2022,0,0,0,101.03906,29.5918ZM99.55176,9a9.25778,9.25778,0,0,0-2.11231,1.96777L78.91113,9Zm-4.7041,21.55176a28.0643,28.0643,0,0,0,7.36816,1.104,41.80207,41.80207,0,0,0,5.44727-.2876l.38476-2.40039-3.98437-.38379q-4.56006-.43212-6.45606-2.064a5.74712,5.74712,0,0,1-1.89551-4.60791A16.18353,16.18353,0,0,1,96,19.03223q1.103-6.14428,4.03125-8.44825,2.92822-2.30419,9-2.30419A43.21954,43.21954,0,0,1,119.75977,9.48l-2.4961,7.68018a41.48225,41.48225,0,0,0-6.69629-.72022,33.82968,33.82968,0,0,0-4.34375.24024l-.38379,2.352,3.21582.33593q4.89552.52881,6.96,2.32764A6.08215,6.08215,0,0,1,118.0791,26.52a17.11076,17.11076,0,0,1-1.2959,6.33594,15.51625,15.51625,0,0,1-1.51172,2.8081,7.23473,7.23473,0,0,1-2.01562,1.91992,13.565,13.565,0,0,1-2.23242,1.2002,10.36807,10.36807,0,0,1-2.5918.59961,37.32673,37.32673,0,0,1-5.47168.33642,43.36323,43.36323,0,0,1-10.80078-1.248Z" style="fill:#fff"/><path d="M131.95117,15.76807l-20.35156-2.16016h20.6875Zm.76856-4.60791L112.415,9h20.68848Zm1.72754,27.6958L114.0957,36.6958h20.73535Zm.8164-4.65576L114.91113,32.04h20.73633Zm.81543-4.6084-20.35156-2.15967h20.73535Zm.81641-4.60791L116.543,22.82422H137.2793Zm.81543-4.60791-20.35156-2.16016H138.0957Zm17.85644-3.6958h-6.624L145.05566,39h-9.12011l3.88769-22.31982h-6.57617L134.63965,9H156.959Z" style="fill:#fff"/><path d="M163.48535,38.856,143.13379,36.6958h20.73633Zm.81641-4.65576L143.9502,32.04h20.73535Zm.8164-4.6084-20.35254-2.15967H165.502Zm.81543-4.60791L145.582,22.82422h20.73535ZM166.75,20.376l-20.35254-2.16016h20.73633Zm.81543-4.60791-20.35156-2.16016h20.6875Zm.76855-4.60791L148.03027,9h20.6875ZM183.166,39H164.92578l5.28027-30h9.12012l-3.93652,22.31982h9.12012Z" style="fill:#fff"/><path d="M193.3418,38.856,172.99023,36.6958h20.73633Zm.8164-4.65576L173.80664,32.04H194.542Zm.81641-4.6084-20.35254-2.15967H195.3584Zm.81543-4.60791-20.35156-2.15967h20.73535Zm.81641-4.60791-20.35254-2.16016h20.73632Zm.81543-4.60791-20.35157-2.16016h20.6875Zm.76855-4.60791L177.88672,9h20.6875Zm16.7998,16.51172h-9.12011l-.624,3.64794h11.18457L215.08594,39H194.78223L200.0625,9H220.126l-2.4961,7.68018H207.79l-.67188,4.03173h9.12012Z" style="fill:#fff"/><path d="M227.51758,38.80811,207.83789,36.6958h20.5918Zm1.96875-4.65625L209.80566,32.04h20.5918ZM231.4541,29.544l-19.68066-2.11182h20.54492ZM233.374,24.936l-19.63183-2.11182h20.54394Zm1.96778-4.60792L215.71,18.21582h20.49609Zm1.91992-4.65624-19.584-2.064H238.126Zm1.96777-4.60792L219.64551,9h20.44824Zm0,0L240.09375,9H219.64551ZM238.6543,39h-9.60059l12.624-30H255.79l2.1123,30h-9.64843l-.19239-4.752h-7.53515Zm8.6875-12.38379V18.21582h-.4795L243.502,26.61621Z" style="fill:#fff"/><path d="M269.03711,38.856,248.68555,36.6958h20.73633Zm.81641-4.65576L249.502,32.04H270.2373Zm.8164-4.6084-20.35254-2.15967h20.73633Zm.76758-4.60791-20.30371-2.15967h20.6875Zm.81641-4.60791-20.30469-2.16016H272.6377Zm.81543-4.60791-20.30372-2.16016h20.6875Zm.8164-4.60791L253.582,9h20.6875ZM290.15723,9q8.209,0,8.208,7.34424a18.08445,18.08445,0,0,1-.91211,5.75976q-1.68016,5.18409-5.27929,6.91211L295.3418,39H285.30957l-2.208-8.92822h-1.96777L279.59766,39h-9.12012l5.28027-30ZM284.542,22.68018a6.5503,6.5503,0,0,0,2.47168-.36036q.83936-.35961,1.15235-2.064a17.78372,17.78372,0,0,0,.31152-2.08789,1.14967,1.14967,0,0,0-.74414-1.22412,7.96425,7.96425,0,0,0-2.42383-.26367h-1.82422l-1.05566,6Z" style="fill:#fff"/><path d="M307.19727,38.856,286.8457,36.6958H307.582Zm.8164-4.65576L287.66211,32.04h20.73535Zm.81641-4.6084-20.35254-2.15967h20.73633Zm.81543-4.60791L289.294,22.82422H310.0293Zm.8164-4.60791-20.35253-2.16016H310.8457Zm.81543-4.60791-20.35156-2.16016h20.6875Zm.76856-4.60791L291.74219,9h20.6875Zm8.44824,17.18408a1.88671,1.88671,0,0,1-.19238-.936,11.07164,11.07164,0,0,1,.0957-1.36816h-.38379L317.75781,39H308.6377L313.918,9h8.5918l4.8955,10.65576a2.43184,2.43184,0,0,1,.14453.936,11.23828,11.23828,0,0,1-.0957,1.36816h.38379L330.1416,9h9.12012l-5.28027,30h-8.5918Z" style="fill:#fff"/></svg>